<?xml version="1.0" encoding="iso-8859-1"?>
<!-- Uploaded to: SVG Repo, www.svgrepo.com, Generator: SVG Repo Mixer Tools -->
<svg height="85px" width="85px" version="1.1" id="Layer_1" xmlns="http://www.w3.org/2000/svg" xmlns:xlink="http://www.w3.org/1999/xlink" 
	 viewBox="0 0 502.073 502.073" xml:space="preserve">
<path style="fill:#40596B;" d="M428.229,428.408l-71.053-71.053c27.167-27.167,43.886-64.784,43.886-106.58
	c0-8.359,0-15.673-2.09-22.988l99.265-15.673C510.775,293.616,486.743,369.894,428.229,428.408z"/>
<path style="fill:#F2F2F2;" d="M498.237,212.114l-99.265,15.673c-7.314-48.065-37.616-88.816-79.412-110.759l44.931-88.816
	C438.677,65.829,484.653,129.567,498.237,212.114z"/>
<path style="fill:#84DBFF;" d="M364.49,28.212l-44.931,88.816c-20.898-10.449-43.886-16.718-67.918-16.718
	c-25.078,0-48.065,6.269-67.918,16.718l-44.931-88.816C210.89-9.404,290.302-9.404,364.49,28.212z"/>
<path style="fill:#FF7058;" d="M428.229,428.408c-98.22,98.22-257.045,98.22-354.22,0s-98.22-256-1.045-354.22
	c19.853-19.853,38.661-33.437,63.739-45.976l44.931,88.816c-48.065,25.078-81.502,75.233-81.502,133.747
	c0,82.547,67.918,149.42,150.465,149.42c41.796,0,79.412-16.718,106.58-43.886L428.229,428.408z"/>
<ellipse style="fill:#F8B64C;" cx="250.596" cy="250.776" rx="130.612" ry="130.612"/>
<ellipse style="fill:#FFD15C;" cx="250.596" cy="250.775" rx="97.176" ry="97.176"/>
<path style="fill:#F8B64C;" d="M260,235.102c-16.718-6.269-17.763-9.404-17.763-13.584c0-5.224,4.18-8.359,11.494-8.359
	c10.449,0,15.673,3.135,18.808,5.224l7.314,4.18l9.404-26.122l-5.224-3.135c-6.269-3.135-12.539-5.224-19.853-6.269v-17.763h-26.122
	v19.853c-16.718,5.224-27.167,17.763-27.167,34.482c0,21.943,17.763,31.347,34.482,37.616c14.629,6.269,15.673,10.449,15.673,14.629
	c0,7.314-7.314,10.449-13.584,10.449c-7.314,0-15.673-2.09-21.943-6.269l-8.359-5.225l-9.404,26.122l4.18,3.135
	c6.269,4.18,14.629,7.314,24.033,8.359v18.808h26.122V311.38c17.763-5.224,28.212-18.808,28.212-36.571
	C292.392,251.82,274.629,241.371,260,235.102z"/>
</svg>